<mxfile host="app.diagrams.net" modified="2023-09-04T13:56:02.042Z" agent="Mozilla/5.0 (Windows NT 10.0; Win64; x64) AppleWebKit/537.36 (KHTML, like Gecko) Chrome/116.0.0.0 Safari/537.36" version="21.6.9" etag="_DCCvvzZF2U798DvMHdJ" type="github">
  <diagram name="PÃ¡gina-1" id="ZtcGI22Ro_nIQs8Yd8J4">
    <mxGraphModel>
      <root>
        <mxCell id="0" />
        <mxCell id="1" parent="0" />
      </root>
    </mxGraphModel>
  </diagram>
</mxfile>
